<svg width="33" height="32" viewBox="0 0 33 32" fill="none" xmlns="http://www.w3.org/2000/svg">
<path d="  8.13464 16.8349 7.84341 16.9193 7.43882L15.2085 7.43851ZM8.83015 31.5C11.8854 31.5 14.636 29.7954 16.0639 27.2195C17.4916 29.7954 20.2421 31.5 23.2975 31.5C27.8572 31.5 31.5638 27.7816 31.5638 23.2129C31.5638 20.1523 29.9198 17.4359 27.3694 16C29.9198 14.5641 31.5638 11.8477 31.5638 8.78711C31.5638 4.2184 27.8572 0.5 23.2975 0.5C20.2421 0.5 17.4916 2.20458 16.0639 4.7805C14.636 2.20458 11.8854 0.5 8.83015 0.5C4.27048 0.5 0.563843 4.2184 0.563843 8.78711C0.563843 11.8477 2.20788 14.5641 4.75833 16C2.20788 17.4359 0.563843 20.1523 0.563843 23.2129C0.563843 27.7816 4.27048 31.5 8.83015 31.5Z" fill="#E5E5E5" stroke="#3DB370"/>
</svg>
